<mxfile host="app.diagrams.net" modified="2023-07-11T14:59:42.875Z" agent="Mozilla/5.0 (X11; Ubuntu; Linux x86_64; rv:109.0) Gecko/20100101 Firefox/115.0" etag="FylFktz0w86xUjHpWFd1" version="21.6.1" type="device">
  <diagram name="Page-1" id="Bc5GJkbn-tEceONIMzTU">
    <mxGraphModel dx="899" dy="552" grid="1" gridSize="10" guides="1" tooltips="1" connect="1" arrows="1" fold="1" page="1" pageScale="1" pageWidth="850" pageHeight="1100" math="0" shadow="0">
      <root>
        <mxCell id="0" />
        <mxCell id="1" parent="0" />
        <mxCell id="vSFo7Jb99_2Wq5jZSn7a-1" value="" style="shape=table;startSize=0;container=1;collapsible=0;childLayout=tableLayout;fontSize=16;fillColor=none;strokeColor=#1BA1E2;strokeWidth=3;" vertex="1" parent="1">
          <mxGeometry x="170" y="565" width="80" height="20" as="geometry" />
        </mxCell>
        <mxCell id="vSFo7Jb99_2Wq5jZSn7a-2" value="" style="shape=tableRow;horizontal=0;startSize=0;swimlaneHead=0;swimlaneBody=0;strokeColor=inherit;top=0;left=0;bottom=0;right=0;collapsible=0;dropTarget=0;fillColor=none;points=[[0,0.5],[1,0.5]];portConstraint=eastwest;fontSize=16;strokeWidth=3;" vertex="1" parent="vSFo7Jb99_2Wq5jZSn7a-1">
          <mxGeometry width="80" height="20" as="geometry" />
        </mxCell>
        <mxCell id="vSFo7Jb99_2Wq5jZSn7a-3" value="" style="shape=partialRectangle;html=1;whiteSpace=wrap;connectable=0;strokeColor=inherit;overflow=hidden;fillColor=none;top=0;left=0;bottom=0;right=0;pointerEvents=1;fontSize=16;" vertex="1" parent="vSFo7Jb99_2Wq5jZSn7a-2">
          <mxGeometry width="27" height="20" as="geometry">
            <mxRectangle width="27" height="20" as="alternateBounds" />
          </mxGeometry>
        </mxCell>
        <mxCell id="vSFo7Jb99_2Wq5jZSn7a-4" value="" style="shape=partialRectangle;html=1;whiteSpace=wrap;connectable=0;strokeColor=inherit;overflow=hidden;fillColor=none;top=0;left=0;bottom=0;right=0;pointerEvents=1;fontSize=16;" vertex="1" parent="vSFo7Jb99_2Wq5jZSn7a-2">
          <mxGeometry x="27" width="26" height="20" as="geometry">
            <mxRectangle width="26" height="20" as="alternateBounds" />
          </mxGeometry>
        </mxCell>
        <mxCell id="vSFo7Jb99_2Wq5jZSn7a-5" value="" style="shape=partialRectangle;html=1;whiteSpace=wrap;connectable=0;strokeColor=inherit;overflow=hidden;fillColor=none;top=0;left=0;bottom=0;right=0;pointerEvents=1;fontSize=16;" vertex="1" parent="vSFo7Jb99_2Wq5jZSn7a-2">
          <mxGeometry x="53" width="27" height="20" as="geometry">
            <mxRectangle width="27" height="20" as="alternateBounds" />
          </mxGeometry>
        </mxCell>
        <mxCell id="vSFo7Jb99_2Wq5jZSn7a-15" value="&lt;font style=&quot;font-size: 16px;&quot; face=&quot;Courier New&quot;&gt;CrossAttention&lt;br&gt;&lt;/font&gt;" style="rounded=1;whiteSpace=wrap;html=1;opacity=60;fillColor=#1ba1e2;fontColor=#ffffff;strokeColor=#006EAF;" vertex="1" parent="1">
          <mxGeometry x="150" y="445" width="320" height="30" as="geometry" />
        </mxCell>
        <mxCell id="vSFo7Jb99_2Wq5jZSn7a-17" value="" style="shape=table;startSize=0;container=1;collapsible=0;childLayout=tableLayout;fontSize=16;fillColor=none;strokeColor=#1BA1E2;strokeWidth=3;" vertex="1" parent="1">
          <mxGeometry x="370" y="565" width="80" height="20" as="geometry" />
        </mxCell>
        <mxCell id="vSFo7Jb99_2Wq5jZSn7a-18" value="" style="shape=tableRow;horizontal=0;startSize=0;swimlaneHead=0;swimlaneBody=0;strokeColor=inherit;top=0;left=0;bottom=0;right=0;collapsible=0;dropTarget=0;fillColor=none;points=[[0,0.5],[1,0.5]];portConstraint=eastwest;fontSize=16;strokeWidth=3;" vertex="1" parent="vSFo7Jb99_2Wq5jZSn7a-17">
          <mxGeometry width="80" height="20" as="geometry" />
        </mxCell>
        <mxCell id="vSFo7Jb99_2Wq5jZSn7a-19" value="" style="shape=partialRectangle;html=1;whiteSpace=wrap;connectable=0;strokeColor=inherit;overflow=hidden;fillColor=none;top=0;left=0;bottom=0;right=0;pointerEvents=1;fontSize=16;" vertex="1" parent="vSFo7Jb99_2Wq5jZSn7a-18">
          <mxGeometry width="27" height="20" as="geometry">
            <mxRectangle width="27" height="20" as="alternateBounds" />
          </mxGeometry>
        </mxCell>
        <mxCell id="vSFo7Jb99_2Wq5jZSn7a-20" value="" style="shape=partialRectangle;html=1;whiteSpace=wrap;connectable=0;strokeColor=inherit;overflow=hidden;fillColor=none;top=0;left=0;bottom=0;right=0;pointerEvents=1;fontSize=16;" vertex="1" parent="vSFo7Jb99_2Wq5jZSn7a-18">
          <mxGeometry x="27" width="26" height="20" as="geometry">
            <mxRectangle width="26" height="20" as="alternateBounds" />
          </mxGeometry>
        </mxCell>
        <mxCell id="vSFo7Jb99_2Wq5jZSn7a-21" value="" style="shape=partialRectangle;html=1;whiteSpace=wrap;connectable=0;strokeColor=inherit;overflow=hidden;fillColor=none;top=0;left=0;bottom=0;right=0;pointerEvents=1;fontSize=16;" vertex="1" parent="vSFo7Jb99_2Wq5jZSn7a-18">
          <mxGeometry x="53" width="27" height="20" as="geometry">
            <mxRectangle width="27" height="20" as="alternateBounds" />
          </mxGeometry>
        </mxCell>
        <mxCell id="vSFo7Jb99_2Wq5jZSn7a-22" value="&lt;font style=&quot;font-size: 16px;&quot; face=&quot;Courier New&quot;&gt;MLP&lt;br&gt;&lt;/font&gt;" style="rounded=1;whiteSpace=wrap;html=1;opacity=60;fillColor=#1ba1e2;fontColor=#ffffff;strokeColor=#006EAF;" vertex="1" parent="1">
          <mxGeometry x="150" y="165" width="120" height="30" as="geometry" />
        </mxCell>
        <mxCell id="vSFo7Jb99_2Wq5jZSn7a-29" value="" style="shape=table;startSize=0;container=1;collapsible=0;childLayout=tableLayout;fontSize=16;fillColor=none;strokeColor=#1BA1E2;strokeWidth=3;" vertex="1" parent="1">
          <mxGeometry x="170" y="285" width="80" height="20" as="geometry" />
        </mxCell>
        <mxCell id="vSFo7Jb99_2Wq5jZSn7a-30" value="" style="shape=tableRow;horizontal=0;startSize=0;swimlaneHead=0;swimlaneBody=0;strokeColor=inherit;top=0;left=0;bottom=0;right=0;collapsible=0;dropTarget=0;fillColor=none;points=[[0,0.5],[1,0.5]];portConstraint=eastwest;fontSize=16;strokeWidth=3;" vertex="1" parent="vSFo7Jb99_2Wq5jZSn7a-29">
          <mxGeometry width="80" height="20" as="geometry" />
        </mxCell>
        <mxCell id="vSFo7Jb99_2Wq5jZSn7a-31" value="" style="shape=partialRectangle;html=1;whiteSpace=wrap;connectable=0;strokeColor=inherit;overflow=hidden;fillColor=none;top=0;left=0;bottom=0;right=0;pointerEvents=1;fontSize=16;" vertex="1" parent="vSFo7Jb99_2Wq5jZSn7a-30">
          <mxGeometry width="27" height="20" as="geometry">
            <mxRectangle width="27" height="20" as="alternateBounds" />
          </mxGeometry>
        </mxCell>
        <mxCell id="vSFo7Jb99_2Wq5jZSn7a-32" value="" style="shape=partialRectangle;html=1;whiteSpace=wrap;connectable=0;strokeColor=inherit;overflow=hidden;fillColor=none;top=0;left=0;bottom=0;right=0;pointerEvents=1;fontSize=16;" vertex="1" parent="vSFo7Jb99_2Wq5jZSn7a-30">
          <mxGeometry x="27" width="26" height="20" as="geometry">
            <mxRectangle width="26" height="20" as="alternateBounds" />
          </mxGeometry>
        </mxCell>
        <mxCell id="vSFo7Jb99_2Wq5jZSn7a-33" value="" style="shape=partialRectangle;html=1;whiteSpace=wrap;connectable=0;strokeColor=inherit;overflow=hidden;fillColor=none;top=0;left=0;bottom=0;right=0;pointerEvents=1;fontSize=16;" vertex="1" parent="vSFo7Jb99_2Wq5jZSn7a-30">
          <mxGeometry x="53" width="27" height="20" as="geometry">
            <mxRectangle width="27" height="20" as="alternateBounds" />
          </mxGeometry>
        </mxCell>
        <mxCell id="vSFo7Jb99_2Wq5jZSn7a-34" value="" style="shape=table;startSize=0;container=1;collapsible=0;childLayout=tableLayout;fontSize=16;fillColor=none;strokeColor=#1BA1E2;strokeWidth=3;" vertex="1" parent="1">
          <mxGeometry x="370" y="285" width="80" height="20" as="geometry" />
        </mxCell>
        <mxCell id="vSFo7Jb99_2Wq5jZSn7a-35" value="" style="shape=tableRow;horizontal=0;startSize=0;swimlaneHead=0;swimlaneBody=0;strokeColor=inherit;top=0;left=0;bottom=0;right=0;collapsible=0;dropTarget=0;fillColor=none;points=[[0,0.5],[1,0.5]];portConstraint=eastwest;fontSize=16;strokeWidth=3;" vertex="1" parent="vSFo7Jb99_2Wq5jZSn7a-34">
          <mxGeometry width="80" height="20" as="geometry" />
        </mxCell>
        <mxCell id="vSFo7Jb99_2Wq5jZSn7a-36" value="" style="shape=partialRectangle;html=1;whiteSpace=wrap;connectable=0;strokeColor=inherit;overflow=hidden;fillColor=none;top=0;left=0;bottom=0;right=0;pointerEvents=1;fontSize=16;" vertex="1" parent="vSFo7Jb99_2Wq5jZSn7a-35">
          <mxGeometry width="27" height="20" as="geometry">
            <mxRectangle width="27" height="20" as="alternateBounds" />
          </mxGeometry>
        </mxCell>
        <mxCell id="vSFo7Jb99_2Wq5jZSn7a-37" value="" style="shape=partialRectangle;html=1;whiteSpace=wrap;connectable=0;strokeColor=inherit;overflow=hidden;fillColor=none;top=0;left=0;bottom=0;right=0;pointerEvents=1;fontSize=16;" vertex="1" parent="vSFo7Jb99_2Wq5jZSn7a-35">
          <mxGeometry x="27" width="26" height="20" as="geometry">
            <mxRectangle width="26" height="20" as="alternateBounds" />
          </mxGeometry>
        </mxCell>
        <mxCell id="vSFo7Jb99_2Wq5jZSn7a-38" value="" style="shape=partialRectangle;html=1;whiteSpace=wrap;connectable=0;strokeColor=inherit;overflow=hidden;fillColor=none;top=0;left=0;bottom=0;right=0;pointerEvents=1;fontSize=16;" vertex="1" parent="vSFo7Jb99_2Wq5jZSn7a-35">
          <mxGeometry x="53" width="27" height="20" as="geometry">
            <mxRectangle width="27" height="20" as="alternateBounds" />
          </mxGeometry>
        </mxCell>
        <mxCell id="vSFo7Jb99_2Wq5jZSn7a-39" value="&lt;font style=&quot;font-size: 16px;&quot; face=&quot;Courier New&quot;&gt;MLP&lt;br&gt;&lt;/font&gt;" style="rounded=1;whiteSpace=wrap;html=1;opacity=60;fillColor=#1ba1e2;fontColor=#ffffff;strokeColor=#006EAF;" vertex="1" parent="1">
          <mxGeometry x="350" y="165" width="120" height="30" as="geometry" />
        </mxCell>
        <mxCell id="vSFo7Jb99_2Wq5jZSn7a-40" value="&lt;font style=&quot;font-size: 16px;&quot; face=&quot;Courier New&quot;&gt;LayerNorm&lt;br&gt;&lt;/font&gt;" style="rounded=1;whiteSpace=wrap;html=1;opacity=60;fillColor=#1ba1e2;fontColor=#ffffff;strokeColor=#006EAF;" vertex="1" parent="1">
          <mxGeometry x="150" y="505" width="320" height="30" as="geometry" />
        </mxCell>
        <mxCell id="vSFo7Jb99_2Wq5jZSn7a-41" value="&lt;font style=&quot;font-size: 16px;&quot; face=&quot;Courier New&quot;&gt;+&lt;/font&gt;" style="ellipse;whiteSpace=wrap;html=1;aspect=fixed;fillColor=#1ba1e2;fontColor=#ffffff;strokeColor=#006EAF;opacity=60;" vertex="1" parent="1">
          <mxGeometry x="200" y="335" width="20" height="20" as="geometry" />
        </mxCell>
        <mxCell id="vSFo7Jb99_2Wq5jZSn7a-42" value="&lt;font style=&quot;font-size: 16px;&quot; face=&quot;Courier New&quot;&gt;+&lt;/font&gt;" style="ellipse;whiteSpace=wrap;html=1;aspect=fixed;fillColor=#1ba1e2;fontColor=#ffffff;strokeColor=#006EAF;opacity=60;" vertex="1" parent="1">
          <mxGeometry x="400" y="335" width="20" height="20" as="geometry" />
        </mxCell>
        <mxCell id="vSFo7Jb99_2Wq5jZSn7a-43" value="&lt;font style=&quot;font-size: 16px;&quot; face=&quot;Courier New&quot;&gt;LayerNorm&lt;br&gt;&lt;/font&gt;" style="rounded=1;whiteSpace=wrap;html=1;opacity=60;fillColor=#1ba1e2;fontColor=#ffffff;strokeColor=#006EAF;" vertex="1" parent="1">
          <mxGeometry x="150" y="225" width="320" height="30" as="geometry" />
        </mxCell>
        <mxCell id="vSFo7Jb99_2Wq5jZSn7a-54" value="" style="shape=table;startSize=0;container=1;collapsible=0;childLayout=tableLayout;fontSize=16;fillColor=none;strokeColor=#1BA1E2;strokeWidth=3;" vertex="1" parent="1">
          <mxGeometry x="170" y="5" width="80" height="20" as="geometry" />
        </mxCell>
        <mxCell id="vSFo7Jb99_2Wq5jZSn7a-55" value="" style="shape=tableRow;horizontal=0;startSize=0;swimlaneHead=0;swimlaneBody=0;strokeColor=inherit;top=0;left=0;bottom=0;right=0;collapsible=0;dropTarget=0;fillColor=none;points=[[0,0.5],[1,0.5]];portConstraint=eastwest;fontSize=16;strokeWidth=3;" vertex="1" parent="vSFo7Jb99_2Wq5jZSn7a-54">
          <mxGeometry width="80" height="20" as="geometry" />
        </mxCell>
        <mxCell id="vSFo7Jb99_2Wq5jZSn7a-56" value="" style="shape=partialRectangle;html=1;whiteSpace=wrap;connectable=0;strokeColor=inherit;overflow=hidden;fillColor=none;top=0;left=0;bottom=0;right=0;pointerEvents=1;fontSize=16;" vertex="1" parent="vSFo7Jb99_2Wq5jZSn7a-55">
          <mxGeometry width="27" height="20" as="geometry">
            <mxRectangle width="27" height="20" as="alternateBounds" />
          </mxGeometry>
        </mxCell>
        <mxCell id="vSFo7Jb99_2Wq5jZSn7a-57" value="" style="shape=partialRectangle;html=1;whiteSpace=wrap;connectable=0;strokeColor=inherit;overflow=hidden;fillColor=none;top=0;left=0;bottom=0;right=0;pointerEvents=1;fontSize=16;" vertex="1" parent="vSFo7Jb99_2Wq5jZSn7a-55">
          <mxGeometry x="27" width="26" height="20" as="geometry">
            <mxRectangle width="26" height="20" as="alternateBounds" />
          </mxGeometry>
        </mxCell>
        <mxCell id="vSFo7Jb99_2Wq5jZSn7a-58" value="" style="shape=partialRectangle;html=1;whiteSpace=wrap;connectable=0;strokeColor=inherit;overflow=hidden;fillColor=none;top=0;left=0;bottom=0;right=0;pointerEvents=1;fontSize=16;" vertex="1" parent="vSFo7Jb99_2Wq5jZSn7a-55">
          <mxGeometry x="53" width="27" height="20" as="geometry">
            <mxRectangle width="27" height="20" as="alternateBounds" />
          </mxGeometry>
        </mxCell>
        <mxCell id="vSFo7Jb99_2Wq5jZSn7a-59" value="" style="shape=table;startSize=0;container=1;collapsible=0;childLayout=tableLayout;fontSize=16;fillColor=none;strokeColor=#1BA1E2;strokeWidth=3;" vertex="1" parent="1">
          <mxGeometry x="370" y="5" width="80" height="20" as="geometry" />
        </mxCell>
        <mxCell id="vSFo7Jb99_2Wq5jZSn7a-60" value="" style="shape=tableRow;horizontal=0;startSize=0;swimlaneHead=0;swimlaneBody=0;strokeColor=inherit;top=0;left=0;bottom=0;right=0;collapsible=0;dropTarget=0;fillColor=none;points=[[0,0.5],[1,0.5]];portConstraint=eastwest;fontSize=16;strokeWidth=3;" vertex="1" parent="vSFo7Jb99_2Wq5jZSn7a-59">
          <mxGeometry width="80" height="20" as="geometry" />
        </mxCell>
        <mxCell id="vSFo7Jb99_2Wq5jZSn7a-61" value="" style="shape=partialRectangle;html=1;whiteSpace=wrap;connectable=0;strokeColor=inherit;overflow=hidden;fillColor=none;top=0;left=0;bottom=0;right=0;pointerEvents=1;fontSize=16;" vertex="1" parent="vSFo7Jb99_2Wq5jZSn7a-60">
          <mxGeometry width="27" height="20" as="geometry">
            <mxRectangle width="27" height="20" as="alternateBounds" />
          </mxGeometry>
        </mxCell>
        <mxCell id="vSFo7Jb99_2Wq5jZSn7a-62" value="" style="shape=partialRectangle;html=1;whiteSpace=wrap;connectable=0;strokeColor=inherit;overflow=hidden;fillColor=none;top=0;left=0;bottom=0;right=0;pointerEvents=1;fontSize=16;" vertex="1" parent="vSFo7Jb99_2Wq5jZSn7a-60">
          <mxGeometry x="27" width="26" height="20" as="geometry">
            <mxRectangle width="26" height="20" as="alternateBounds" />
          </mxGeometry>
        </mxCell>
        <mxCell id="vSFo7Jb99_2Wq5jZSn7a-63" value="" style="shape=partialRectangle;html=1;whiteSpace=wrap;connectable=0;strokeColor=inherit;overflow=hidden;fillColor=none;top=0;left=0;bottom=0;right=0;pointerEvents=1;fontSize=16;" vertex="1" parent="vSFo7Jb99_2Wq5jZSn7a-60">
          <mxGeometry x="53" width="27" height="20" as="geometry">
            <mxRectangle width="27" height="20" as="alternateBounds" />
          </mxGeometry>
        </mxCell>
        <mxCell id="vSFo7Jb99_2Wq5jZSn7a-64" value="&lt;font style=&quot;font-size: 16px;&quot; face=&quot;Courier New&quot;&gt;+&lt;/font&gt;" style="ellipse;whiteSpace=wrap;html=1;aspect=fixed;fillColor=#1ba1e2;fontColor=#ffffff;strokeColor=#006EAF;opacity=60;" vertex="1" parent="1">
          <mxGeometry x="200" y="55" width="20" height="20" as="geometry" />
        </mxCell>
        <mxCell id="vSFo7Jb99_2Wq5jZSn7a-65" value="&lt;font style=&quot;font-size: 16px;&quot; face=&quot;Courier New&quot;&gt;+&lt;/font&gt;" style="ellipse;whiteSpace=wrap;html=1;aspect=fixed;fillColor=#1ba1e2;fontColor=#ffffff;strokeColor=#006EAF;opacity=60;" vertex="1" parent="1">
          <mxGeometry x="400" y="55" width="20" height="20" as="geometry" />
        </mxCell>
        <mxCell id="vSFo7Jb99_2Wq5jZSn7a-66" value="" style="endArrow=classic;html=1;rounded=0;fillColor=#1ba1e2;strokeColor=#006EAF;strokeWidth=3;" edge="1" parent="1">
          <mxGeometry width="50" height="50" relative="1" as="geometry">
            <mxPoint x="410" y="565" as="sourcePoint" />
            <mxPoint x="410" y="535" as="targetPoint" />
          </mxGeometry>
        </mxCell>
        <mxCell id="vSFo7Jb99_2Wq5jZSn7a-67" value="" style="endArrow=classic;html=1;rounded=0;fillColor=#1ba1e2;strokeColor=#006EAF;strokeWidth=3;" edge="1" parent="1">
          <mxGeometry width="50" height="50" relative="1" as="geometry">
            <mxPoint x="210" y="565" as="sourcePoint" />
            <mxPoint x="210" y="535" as="targetPoint" />
          </mxGeometry>
        </mxCell>
        <mxCell id="vSFo7Jb99_2Wq5jZSn7a-68" value="" style="endArrow=classic;html=1;rounded=0;fillColor=#1ba1e2;strokeColor=#006EAF;strokeWidth=3;" edge="1" parent="1">
          <mxGeometry width="50" height="50" relative="1" as="geometry">
            <mxPoint x="410" y="505" as="sourcePoint" />
            <mxPoint x="410" y="475" as="targetPoint" />
          </mxGeometry>
        </mxCell>
        <mxCell id="vSFo7Jb99_2Wq5jZSn7a-69" value="" style="endArrow=classic;html=1;rounded=0;fillColor=#1ba1e2;strokeColor=#006EAF;strokeWidth=3;" edge="1" parent="1">
          <mxGeometry width="50" height="50" relative="1" as="geometry">
            <mxPoint x="210" y="505" as="sourcePoint" />
            <mxPoint x="210" y="475" as="targetPoint" />
          </mxGeometry>
        </mxCell>
        <mxCell id="vSFo7Jb99_2Wq5jZSn7a-70" value="" style="endArrow=classic;html=1;rounded=0;fillColor=#1ba1e2;strokeColor=#006EAF;strokeWidth=3;" edge="1" parent="1">
          <mxGeometry width="50" height="50" relative="1" as="geometry">
            <mxPoint x="410" y="385" as="sourcePoint" />
            <mxPoint x="410" y="355" as="targetPoint" />
          </mxGeometry>
        </mxCell>
        <mxCell id="vSFo7Jb99_2Wq5jZSn7a-71" value="" style="endArrow=classic;html=1;rounded=0;fillColor=#1ba1e2;strokeColor=#006EAF;strokeWidth=3;" edge="1" parent="1">
          <mxGeometry width="50" height="50" relative="1" as="geometry">
            <mxPoint x="210" y="385" as="sourcePoint" />
            <mxPoint x="210" y="355" as="targetPoint" />
          </mxGeometry>
        </mxCell>
        <mxCell id="vSFo7Jb99_2Wq5jZSn7a-72" value="" style="endArrow=classic;html=1;rounded=0;fillColor=#1ba1e2;strokeColor=#006EAF;strokeWidth=3;" edge="1" parent="1">
          <mxGeometry width="50" height="50" relative="1" as="geometry">
            <mxPoint x="410" y="445" as="sourcePoint" />
            <mxPoint x="410" y="415" as="targetPoint" />
          </mxGeometry>
        </mxCell>
        <mxCell id="vSFo7Jb99_2Wq5jZSn7a-75" value="" style="endArrow=classic;html=1;rounded=0;fillColor=#1ba1e2;strokeColor=#006EAF;strokeWidth=2;entryX=0;entryY=0.5;entryDx=0;entryDy=0;dashed=1;opacity=75;" edge="1" parent="1" target="vSFo7Jb99_2Wq5jZSn7a-42">
          <mxGeometry width="50" height="50" relative="1" as="geometry">
            <mxPoint x="410" y="555" as="sourcePoint" />
            <mxPoint x="400" y="405" as="targetPoint" />
            <Array as="points">
              <mxPoint x="340" y="555" />
              <mxPoint x="340" y="345" />
            </Array>
          </mxGeometry>
        </mxCell>
        <mxCell id="vSFo7Jb99_2Wq5jZSn7a-74" value="" style="endArrow=classic;html=1;rounded=0;fillColor=#1ba1e2;strokeColor=#006EAF;strokeWidth=2;entryX=0;entryY=0.5;entryDx=0;entryDy=0;dashed=1;opacity=75;" edge="1" parent="1" target="vSFo7Jb99_2Wq5jZSn7a-41">
          <mxGeometry width="50" height="50" relative="1" as="geometry">
            <mxPoint x="210" y="555" as="sourcePoint" />
            <mxPoint x="150.00000000000003" y="405" as="targetPoint" />
            <Array as="points">
              <mxPoint x="140" y="555" />
              <mxPoint x="140" y="345" />
            </Array>
          </mxGeometry>
        </mxCell>
        <mxCell id="vSFo7Jb99_2Wq5jZSn7a-73" value="" style="endArrow=classic;html=1;rounded=0;fillColor=#1ba1e2;strokeColor=#006EAF;strokeWidth=3;" edge="1" parent="1">
          <mxGeometry width="50" height="50" relative="1" as="geometry">
            <mxPoint x="210" y="445" as="sourcePoint" />
            <mxPoint x="210" y="415" as="targetPoint" />
          </mxGeometry>
        </mxCell>
        <mxCell id="vSFo7Jb99_2Wq5jZSn7a-76" value="" style="endArrow=classic;html=1;rounded=0;fillColor=#1ba1e2;strokeColor=#006EAF;strokeWidth=3;" edge="1" parent="1">
          <mxGeometry width="50" height="50" relative="1" as="geometry">
            <mxPoint x="410" y="285" as="sourcePoint" />
            <mxPoint x="410" y="255" as="targetPoint" />
          </mxGeometry>
        </mxCell>
        <mxCell id="vSFo7Jb99_2Wq5jZSn7a-77" value="" style="endArrow=classic;html=1;rounded=0;fillColor=#1ba1e2;strokeColor=#006EAF;strokeWidth=3;" edge="1" parent="1">
          <mxGeometry width="50" height="50" relative="1" as="geometry">
            <mxPoint x="210" y="285" as="sourcePoint" />
            <mxPoint x="210" y="255" as="targetPoint" />
          </mxGeometry>
        </mxCell>
        <mxCell id="vSFo7Jb99_2Wq5jZSn7a-80" value="" style="endArrow=classic;html=1;rounded=0;fillColor=#1ba1e2;strokeColor=#006EAF;strokeWidth=3;" edge="1" parent="1">
          <mxGeometry width="50" height="50" relative="1" as="geometry">
            <mxPoint x="410" y="225" as="sourcePoint" />
            <mxPoint x="410" y="195" as="targetPoint" />
          </mxGeometry>
        </mxCell>
        <mxCell id="vSFo7Jb99_2Wq5jZSn7a-81" value="" style="endArrow=classic;html=1;rounded=0;fillColor=#1ba1e2;strokeColor=#006EAF;strokeWidth=3;" edge="1" parent="1">
          <mxGeometry width="50" height="50" relative="1" as="geometry">
            <mxPoint x="210" y="225" as="sourcePoint" />
            <mxPoint x="210" y="195" as="targetPoint" />
          </mxGeometry>
        </mxCell>
        <mxCell id="vSFo7Jb99_2Wq5jZSn7a-82" value="" style="endArrow=classic;html=1;rounded=0;fillColor=#1ba1e2;strokeColor=#006EAF;strokeWidth=3;" edge="1" parent="1">
          <mxGeometry width="50" height="50" relative="1" as="geometry">
            <mxPoint x="410" y="105" as="sourcePoint" />
            <mxPoint x="410" y="75" as="targetPoint" />
          </mxGeometry>
        </mxCell>
        <mxCell id="vSFo7Jb99_2Wq5jZSn7a-83" value="" style="endArrow=classic;html=1;rounded=0;fillColor=#1ba1e2;strokeColor=#006EAF;strokeWidth=3;" edge="1" parent="1">
          <mxGeometry width="50" height="50" relative="1" as="geometry">
            <mxPoint x="210" y="105" as="sourcePoint" />
            <mxPoint x="210" y="75" as="targetPoint" />
          </mxGeometry>
        </mxCell>
        <mxCell id="vSFo7Jb99_2Wq5jZSn7a-84" value="" style="endArrow=classic;html=1;rounded=0;fillColor=#1ba1e2;strokeColor=#006EAF;strokeWidth=3;" edge="1" parent="1">
          <mxGeometry width="50" height="50" relative="1" as="geometry">
            <mxPoint x="410" y="165" as="sourcePoint" />
            <mxPoint x="410" y="135" as="targetPoint" />
          </mxGeometry>
        </mxCell>
        <mxCell id="vSFo7Jb99_2Wq5jZSn7a-85" value="" style="endArrow=classic;html=1;rounded=0;fillColor=#1ba1e2;strokeColor=#006EAF;strokeWidth=3;" edge="1" parent="1">
          <mxGeometry width="50" height="50" relative="1" as="geometry">
            <mxPoint x="210" y="165" as="sourcePoint" />
            <mxPoint x="210" y="135" as="targetPoint" />
          </mxGeometry>
        </mxCell>
        <mxCell id="vSFo7Jb99_2Wq5jZSn7a-86" value="" style="endArrow=classic;html=1;rounded=0;fillColor=#1ba1e2;strokeColor=#006EAF;strokeWidth=2;entryX=0;entryY=0.5;entryDx=0;entryDy=0;dashed=1;opacity=75;" edge="1" parent="1" target="vSFo7Jb99_2Wq5jZSn7a-65">
          <mxGeometry width="50" height="50" relative="1" as="geometry">
            <mxPoint x="410" y="275" as="sourcePoint" />
            <mxPoint x="400" y="125" as="targetPoint" />
            <Array as="points">
              <mxPoint x="340" y="275" />
              <mxPoint x="340" y="65" />
            </Array>
          </mxGeometry>
        </mxCell>
        <mxCell id="vSFo7Jb99_2Wq5jZSn7a-87" value="" style="endArrow=classic;html=1;rounded=0;fillColor=#1ba1e2;strokeColor=#006EAF;strokeWidth=2;entryX=0;entryY=0.5;entryDx=0;entryDy=0;dashed=1;opacity=75;" edge="1" parent="1" target="vSFo7Jb99_2Wq5jZSn7a-64">
          <mxGeometry width="50" height="50" relative="1" as="geometry">
            <mxPoint x="210" y="275" as="sourcePoint" />
            <mxPoint x="200" y="125" as="targetPoint" />
            <Array as="points">
              <mxPoint x="140" y="275" />
              <mxPoint x="140" y="65" />
            </Array>
          </mxGeometry>
        </mxCell>
        <mxCell id="vSFo7Jb99_2Wq5jZSn7a-88" value="&lt;font style=&quot;font-size: 16px;&quot; face=&quot;Courier New&quot;&gt;Dropout&lt;br&gt;&lt;/font&gt;" style="rounded=1;whiteSpace=wrap;html=1;opacity=60;fillColor=#1ba1e2;fontColor=#ffffff;strokeColor=#006EAF;" vertex="1" parent="1">
          <mxGeometry x="150" y="385" width="120" height="30" as="geometry" />
        </mxCell>
        <mxCell id="vSFo7Jb99_2Wq5jZSn7a-89" value="&lt;font style=&quot;font-size: 16px;&quot; face=&quot;Courier New&quot;&gt;Dropout&lt;br&gt;&lt;/font&gt;" style="rounded=1;whiteSpace=wrap;html=1;opacity=60;fillColor=#1ba1e2;fontColor=#ffffff;strokeColor=#006EAF;" vertex="1" parent="1">
          <mxGeometry x="350" y="385" width="120" height="30" as="geometry" />
        </mxCell>
        <mxCell id="vSFo7Jb99_2Wq5jZSn7a-90" value="" style="endArrow=classic;html=1;rounded=0;fillColor=#1ba1e2;strokeColor=#006EAF;strokeWidth=3;" edge="1" parent="1">
          <mxGeometry width="50" height="50" relative="1" as="geometry">
            <mxPoint x="410" y="335" as="sourcePoint" />
            <mxPoint x="410" y="305" as="targetPoint" />
          </mxGeometry>
        </mxCell>
        <mxCell id="vSFo7Jb99_2Wq5jZSn7a-91" value="" style="endArrow=classic;html=1;rounded=0;fillColor=#1ba1e2;strokeColor=#006EAF;strokeWidth=3;" edge="1" parent="1">
          <mxGeometry width="50" height="50" relative="1" as="geometry">
            <mxPoint x="210" y="335" as="sourcePoint" />
            <mxPoint x="210" y="305" as="targetPoint" />
          </mxGeometry>
        </mxCell>
        <mxCell id="vSFo7Jb99_2Wq5jZSn7a-92" value="&lt;font style=&quot;font-size: 16px;&quot; face=&quot;Courier New&quot;&gt;Dropout&lt;br&gt;&lt;/font&gt;" style="rounded=1;whiteSpace=wrap;html=1;opacity=60;fillColor=#1ba1e2;fontColor=#ffffff;strokeColor=#006EAF;" vertex="1" parent="1">
          <mxGeometry x="150" y="105" width="120" height="30" as="geometry" />
        </mxCell>
        <mxCell id="vSFo7Jb99_2Wq5jZSn7a-93" value="&lt;font style=&quot;font-size: 16px;&quot; face=&quot;Courier New&quot;&gt;Dropout&lt;br&gt;&lt;/font&gt;" style="rounded=1;whiteSpace=wrap;html=1;opacity=60;fillColor=#1ba1e2;fontColor=#ffffff;strokeColor=#006EAF;" vertex="1" parent="1">
          <mxGeometry x="350" y="105" width="120" height="30" as="geometry" />
        </mxCell>
        <mxCell id="vSFo7Jb99_2Wq5jZSn7a-94" value="" style="endArrow=classic;html=1;rounded=0;fillColor=#1ba1e2;strokeColor=#006EAF;strokeWidth=3;" edge="1" parent="1">
          <mxGeometry width="50" height="50" relative="1" as="geometry">
            <mxPoint x="410" y="55" as="sourcePoint" />
            <mxPoint x="410" y="25" as="targetPoint" />
          </mxGeometry>
        </mxCell>
        <mxCell id="vSFo7Jb99_2Wq5jZSn7a-95" value="" style="endArrow=classic;html=1;rounded=0;fillColor=#1ba1e2;strokeColor=#006EAF;strokeWidth=3;" edge="1" parent="1">
          <mxGeometry width="50" height="50" relative="1" as="geometry">
            <mxPoint x="210" y="55" as="sourcePoint" />
            <mxPoint x="210" y="25" as="targetPoint" />
          </mxGeometry>
        </mxCell>
        <mxCell id="vSFo7Jb99_2Wq5jZSn7a-96" value="&lt;font style=&quot;font-size: 16px;&quot; face=&quot;Courier New&quot;&gt;z&lt;sub&gt;1&lt;/sub&gt;&lt;/font&gt;" style="text;html=1;strokeColor=none;fillColor=none;align=center;verticalAlign=middle;whiteSpace=wrap;rounded=0;fontColor=#FFFFFF;" vertex="1" parent="1">
          <mxGeometry x="110" y="560" width="60" height="30" as="geometry" />
        </mxCell>
        <mxCell id="vSFo7Jb99_2Wq5jZSn7a-97" value="&lt;font style=&quot;font-size: 16px;&quot; face=&quot;Courier New&quot;&gt;z&lt;sub&gt;2&lt;/sub&gt;&lt;/font&gt;" style="text;html=1;strokeColor=none;fillColor=none;align=center;verticalAlign=middle;whiteSpace=wrap;rounded=0;fontColor=#FFFFFF;" vertex="1" parent="1">
          <mxGeometry x="310" y="560" width="60" height="30" as="geometry" />
        </mxCell>
        <mxCell id="vSFo7Jb99_2Wq5jZSn7a-98" value="&lt;font style=&quot;font-size: 16px;&quot; face=&quot;Courier New&quot;&gt;c&lt;sub&gt;1&lt;/sub&gt;&lt;/font&gt;" style="text;html=1;strokeColor=none;fillColor=none;align=center;verticalAlign=middle;whiteSpace=wrap;rounded=0;fontColor=#FFFFFF;" vertex="1" parent="1">
          <mxGeometry x="110" y="280" width="60" height="30" as="geometry" />
        </mxCell>
        <mxCell id="vSFo7Jb99_2Wq5jZSn7a-99" value="&lt;font style=&quot;font-size: 16px;&quot; face=&quot;Courier New&quot;&gt;c&lt;sub&gt;2&lt;/sub&gt;&lt;/font&gt;" style="text;html=1;strokeColor=none;fillColor=none;align=center;verticalAlign=middle;whiteSpace=wrap;rounded=0;fontColor=#FFFFFF;" vertex="1" parent="1">
          <mxGeometry x="310" y="280" width="60" height="30" as="geometry" />
        </mxCell>
        <mxCell id="vSFo7Jb99_2Wq5jZSn7a-100" value="&lt;font style=&quot;font-size: 16px;&quot; face=&quot;Courier New&quot;&gt;r&lt;sub&gt;1&lt;/sub&gt;&lt;/font&gt;" style="text;html=1;strokeColor=none;fillColor=none;align=center;verticalAlign=middle;whiteSpace=wrap;rounded=0;fontColor=#FFFFFF;" vertex="1" parent="1">
          <mxGeometry x="110" width="60" height="30" as="geometry" />
        </mxCell>
        <mxCell id="vSFo7Jb99_2Wq5jZSn7a-101" value="&lt;font style=&quot;font-size: 16px;&quot; face=&quot;Courier New&quot;&gt;r&lt;sub&gt;2&lt;/sub&gt;&lt;/font&gt;" style="text;html=1;strokeColor=none;fillColor=none;align=center;verticalAlign=middle;whiteSpace=wrap;rounded=0;fontColor=#FFFFFF;" vertex="1" parent="1">
          <mxGeometry x="310" width="60" height="30" as="geometry" />
        </mxCell>
        <mxCell id="vSFo7Jb99_2Wq5jZSn7a-144" value="" style="shape=table;startSize=0;container=1;collapsible=0;childLayout=tableLayout;fontSize=16;fillColor=none;strokeColor=#1BA1E2;strokeWidth=3;" vertex="1" parent="1">
          <mxGeometry x="170" y="845" width="80" height="20" as="geometry" />
        </mxCell>
        <mxCell id="vSFo7Jb99_2Wq5jZSn7a-145" value="" style="shape=tableRow;horizontal=0;startSize=0;swimlaneHead=0;swimlaneBody=0;strokeColor=inherit;top=0;left=0;bottom=0;right=0;collapsible=0;dropTarget=0;fillColor=none;points=[[0,0.5],[1,0.5]];portConstraint=eastwest;fontSize=16;strokeWidth=3;" vertex="1" parent="vSFo7Jb99_2Wq5jZSn7a-144">
          <mxGeometry width="80" height="20" as="geometry" />
        </mxCell>
        <mxCell id="vSFo7Jb99_2Wq5jZSn7a-146" value="" style="shape=partialRectangle;html=1;whiteSpace=wrap;connectable=0;strokeColor=inherit;overflow=hidden;fillColor=none;top=0;left=0;bottom=0;right=0;pointerEvents=1;fontSize=16;" vertex="1" parent="vSFo7Jb99_2Wq5jZSn7a-145">
          <mxGeometry width="27" height="20" as="geometry">
            <mxRectangle width="27" height="20" as="alternateBounds" />
          </mxGeometry>
        </mxCell>
        <mxCell id="vSFo7Jb99_2Wq5jZSn7a-147" value="" style="shape=partialRectangle;html=1;whiteSpace=wrap;connectable=0;strokeColor=inherit;overflow=hidden;fillColor=none;top=0;left=0;bottom=0;right=0;pointerEvents=1;fontSize=16;" vertex="1" parent="vSFo7Jb99_2Wq5jZSn7a-145">
          <mxGeometry x="27" width="26" height="20" as="geometry">
            <mxRectangle width="26" height="20" as="alternateBounds" />
          </mxGeometry>
        </mxCell>
        <mxCell id="vSFo7Jb99_2Wq5jZSn7a-148" value="" style="shape=partialRectangle;html=1;whiteSpace=wrap;connectable=0;strokeColor=inherit;overflow=hidden;fillColor=none;top=0;left=0;bottom=0;right=0;pointerEvents=1;fontSize=16;" vertex="1" parent="vSFo7Jb99_2Wq5jZSn7a-145">
          <mxGeometry x="53" width="27" height="20" as="geometry">
            <mxRectangle width="27" height="20" as="alternateBounds" />
          </mxGeometry>
        </mxCell>
        <mxCell id="vSFo7Jb99_2Wq5jZSn7a-149" value="&lt;font style=&quot;font-size: 16px;&quot; face=&quot;Courier New&quot;&gt;MaskedSelfAttention&lt;br&gt;&lt;/font&gt;" style="rounded=1;whiteSpace=wrap;html=1;opacity=60;fillColor=#1ba1e2;fontColor=#ffffff;strokeColor=#006EAF;" vertex="1" parent="1">
          <mxGeometry x="150" y="725" width="320" height="30" as="geometry" />
        </mxCell>
        <mxCell id="vSFo7Jb99_2Wq5jZSn7a-150" value="" style="shape=table;startSize=0;container=1;collapsible=0;childLayout=tableLayout;fontSize=16;fillColor=none;strokeColor=#1BA1E2;strokeWidth=3;" vertex="1" parent="1">
          <mxGeometry x="370" y="845" width="80" height="20" as="geometry" />
        </mxCell>
        <mxCell id="vSFo7Jb99_2Wq5jZSn7a-151" value="" style="shape=tableRow;horizontal=0;startSize=0;swimlaneHead=0;swimlaneBody=0;strokeColor=inherit;top=0;left=0;bottom=0;right=0;collapsible=0;dropTarget=0;fillColor=none;points=[[0,0.5],[1,0.5]];portConstraint=eastwest;fontSize=16;strokeWidth=3;" vertex="1" parent="vSFo7Jb99_2Wq5jZSn7a-150">
          <mxGeometry width="80" height="20" as="geometry" />
        </mxCell>
        <mxCell id="vSFo7Jb99_2Wq5jZSn7a-152" value="" style="shape=partialRectangle;html=1;whiteSpace=wrap;connectable=0;strokeColor=inherit;overflow=hidden;fillColor=none;top=0;left=0;bottom=0;right=0;pointerEvents=1;fontSize=16;" vertex="1" parent="vSFo7Jb99_2Wq5jZSn7a-151">
          <mxGeometry width="27" height="20" as="geometry">
            <mxRectangle width="27" height="20" as="alternateBounds" />
          </mxGeometry>
        </mxCell>
        <mxCell id="vSFo7Jb99_2Wq5jZSn7a-153" value="" style="shape=partialRectangle;html=1;whiteSpace=wrap;connectable=0;strokeColor=inherit;overflow=hidden;fillColor=none;top=0;left=0;bottom=0;right=0;pointerEvents=1;fontSize=16;" vertex="1" parent="vSFo7Jb99_2Wq5jZSn7a-151">
          <mxGeometry x="27" width="26" height="20" as="geometry">
            <mxRectangle width="26" height="20" as="alternateBounds" />
          </mxGeometry>
        </mxCell>
        <mxCell id="vSFo7Jb99_2Wq5jZSn7a-154" value="" style="shape=partialRectangle;html=1;whiteSpace=wrap;connectable=0;strokeColor=inherit;overflow=hidden;fillColor=none;top=0;left=0;bottom=0;right=0;pointerEvents=1;fontSize=16;" vertex="1" parent="vSFo7Jb99_2Wq5jZSn7a-151">
          <mxGeometry x="53" width="27" height="20" as="geometry">
            <mxRectangle width="27" height="20" as="alternateBounds" />
          </mxGeometry>
        </mxCell>
        <mxCell id="vSFo7Jb99_2Wq5jZSn7a-155" value="&lt;font style=&quot;font-size: 16px;&quot; face=&quot;Courier New&quot;&gt;LayerNorm&lt;br&gt;&lt;/font&gt;" style="rounded=1;whiteSpace=wrap;html=1;opacity=60;fillColor=#1ba1e2;fontColor=#ffffff;strokeColor=#006EAF;" vertex="1" parent="1">
          <mxGeometry x="150" y="785" width="320" height="30" as="geometry" />
        </mxCell>
        <mxCell id="vSFo7Jb99_2Wq5jZSn7a-156" value="&lt;font style=&quot;font-size: 16px;&quot; face=&quot;Courier New&quot;&gt;+&lt;/font&gt;" style="ellipse;whiteSpace=wrap;html=1;aspect=fixed;fillColor=#1ba1e2;fontColor=#ffffff;strokeColor=#006EAF;opacity=60;" vertex="1" parent="1">
          <mxGeometry x="200" y="615" width="20" height="20" as="geometry" />
        </mxCell>
        <mxCell id="vSFo7Jb99_2Wq5jZSn7a-157" value="&lt;font style=&quot;font-size: 16px;&quot; face=&quot;Courier New&quot;&gt;+&lt;/font&gt;" style="ellipse;whiteSpace=wrap;html=1;aspect=fixed;fillColor=#1ba1e2;fontColor=#ffffff;strokeColor=#006EAF;opacity=60;" vertex="1" parent="1">
          <mxGeometry x="400" y="615" width="20" height="20" as="geometry" />
        </mxCell>
        <mxCell id="vSFo7Jb99_2Wq5jZSn7a-158" value="" style="endArrow=classic;html=1;rounded=0;fillColor=#1ba1e2;strokeColor=#006EAF;strokeWidth=3;" edge="1" parent="1">
          <mxGeometry width="50" height="50" relative="1" as="geometry">
            <mxPoint x="410" y="845" as="sourcePoint" />
            <mxPoint x="410" y="815" as="targetPoint" />
          </mxGeometry>
        </mxCell>
        <mxCell id="vSFo7Jb99_2Wq5jZSn7a-159" value="" style="endArrow=classic;html=1;rounded=0;fillColor=#1ba1e2;strokeColor=#006EAF;strokeWidth=3;" edge="1" parent="1">
          <mxGeometry width="50" height="50" relative="1" as="geometry">
            <mxPoint x="210" y="845" as="sourcePoint" />
            <mxPoint x="210" y="815" as="targetPoint" />
          </mxGeometry>
        </mxCell>
        <mxCell id="vSFo7Jb99_2Wq5jZSn7a-160" value="" style="endArrow=classic;html=1;rounded=0;fillColor=#1ba1e2;strokeColor=#006EAF;strokeWidth=3;" edge="1" parent="1">
          <mxGeometry width="50" height="50" relative="1" as="geometry">
            <mxPoint x="410" y="785" as="sourcePoint" />
            <mxPoint x="410" y="755" as="targetPoint" />
          </mxGeometry>
        </mxCell>
        <mxCell id="vSFo7Jb99_2Wq5jZSn7a-161" value="" style="endArrow=classic;html=1;rounded=0;fillColor=#1ba1e2;strokeColor=#006EAF;strokeWidth=3;" edge="1" parent="1">
          <mxGeometry width="50" height="50" relative="1" as="geometry">
            <mxPoint x="210" y="785" as="sourcePoint" />
            <mxPoint x="210" y="755" as="targetPoint" />
          </mxGeometry>
        </mxCell>
        <mxCell id="vSFo7Jb99_2Wq5jZSn7a-162" value="" style="endArrow=classic;html=1;rounded=0;fillColor=#1ba1e2;strokeColor=#006EAF;strokeWidth=3;" edge="1" parent="1">
          <mxGeometry width="50" height="50" relative="1" as="geometry">
            <mxPoint x="410" y="665" as="sourcePoint" />
            <mxPoint x="410" y="635" as="targetPoint" />
          </mxGeometry>
        </mxCell>
        <mxCell id="vSFo7Jb99_2Wq5jZSn7a-163" value="" style="endArrow=classic;html=1;rounded=0;fillColor=#1ba1e2;strokeColor=#006EAF;strokeWidth=3;" edge="1" parent="1">
          <mxGeometry width="50" height="50" relative="1" as="geometry">
            <mxPoint x="210" y="665" as="sourcePoint" />
            <mxPoint x="210" y="635" as="targetPoint" />
          </mxGeometry>
        </mxCell>
        <mxCell id="vSFo7Jb99_2Wq5jZSn7a-164" value="" style="endArrow=classic;html=1;rounded=0;fillColor=#1ba1e2;strokeColor=#006EAF;strokeWidth=3;" edge="1" parent="1">
          <mxGeometry width="50" height="50" relative="1" as="geometry">
            <mxPoint x="410" y="725" as="sourcePoint" />
            <mxPoint x="410" y="695" as="targetPoint" />
          </mxGeometry>
        </mxCell>
        <mxCell id="vSFo7Jb99_2Wq5jZSn7a-165" value="" style="endArrow=classic;html=1;rounded=0;fillColor=#1ba1e2;strokeColor=#006EAF;strokeWidth=2;entryX=0;entryY=0.5;entryDx=0;entryDy=0;dashed=1;opacity=75;" edge="1" parent="1" target="vSFo7Jb99_2Wq5jZSn7a-157">
          <mxGeometry width="50" height="50" relative="1" as="geometry">
            <mxPoint x="410" y="835" as="sourcePoint" />
            <mxPoint x="400" y="685" as="targetPoint" />
            <Array as="points">
              <mxPoint x="340" y="835" />
              <mxPoint x="340" y="625" />
            </Array>
          </mxGeometry>
        </mxCell>
        <mxCell id="vSFo7Jb99_2Wq5jZSn7a-166" value="" style="endArrow=classic;html=1;rounded=0;fillColor=#1ba1e2;strokeColor=#006EAF;strokeWidth=2;entryX=0;entryY=0.5;entryDx=0;entryDy=0;dashed=1;opacity=75;" edge="1" parent="1" target="vSFo7Jb99_2Wq5jZSn7a-156">
          <mxGeometry width="50" height="50" relative="1" as="geometry">
            <mxPoint x="210" y="835" as="sourcePoint" />
            <mxPoint x="150.00000000000003" y="685" as="targetPoint" />
            <Array as="points">
              <mxPoint x="140" y="835" />
              <mxPoint x="140" y="625" />
            </Array>
          </mxGeometry>
        </mxCell>
        <mxCell id="vSFo7Jb99_2Wq5jZSn7a-167" value="" style="endArrow=classic;html=1;rounded=0;fillColor=#1ba1e2;strokeColor=#006EAF;strokeWidth=3;" edge="1" parent="1">
          <mxGeometry width="50" height="50" relative="1" as="geometry">
            <mxPoint x="210" y="725" as="sourcePoint" />
            <mxPoint x="210" y="695" as="targetPoint" />
          </mxGeometry>
        </mxCell>
        <mxCell id="vSFo7Jb99_2Wq5jZSn7a-168" value="&lt;font style=&quot;font-size: 16px;&quot; face=&quot;Courier New&quot;&gt;Dropout&lt;br&gt;&lt;/font&gt;" style="rounded=1;whiteSpace=wrap;html=1;opacity=60;fillColor=#1ba1e2;fontColor=#ffffff;strokeColor=#006EAF;" vertex="1" parent="1">
          <mxGeometry x="150" y="665" width="120" height="30" as="geometry" />
        </mxCell>
        <mxCell id="vSFo7Jb99_2Wq5jZSn7a-169" value="&lt;font style=&quot;font-size: 16px;&quot; face=&quot;Courier New&quot;&gt;Dropout&lt;br&gt;&lt;/font&gt;" style="rounded=1;whiteSpace=wrap;html=1;opacity=60;fillColor=#1ba1e2;fontColor=#ffffff;strokeColor=#006EAF;" vertex="1" parent="1">
          <mxGeometry x="350" y="665" width="120" height="30" as="geometry" />
        </mxCell>
        <mxCell id="vSFo7Jb99_2Wq5jZSn7a-170" value="" style="endArrow=classic;html=1;rounded=0;fillColor=#1ba1e2;strokeColor=#006EAF;strokeWidth=3;" edge="1" parent="1">
          <mxGeometry width="50" height="50" relative="1" as="geometry">
            <mxPoint x="410" y="615" as="sourcePoint" />
            <mxPoint x="410" y="585" as="targetPoint" />
          </mxGeometry>
        </mxCell>
        <mxCell id="vSFo7Jb99_2Wq5jZSn7a-171" value="" style="endArrow=classic;html=1;rounded=0;fillColor=#1ba1e2;strokeColor=#006EAF;strokeWidth=3;" edge="1" parent="1">
          <mxGeometry width="50" height="50" relative="1" as="geometry">
            <mxPoint x="210" y="615" as="sourcePoint" />
            <mxPoint x="210" y="585" as="targetPoint" />
          </mxGeometry>
        </mxCell>
        <mxCell id="vSFo7Jb99_2Wq5jZSn7a-172" value="&lt;font style=&quot;font-size: 16px;&quot; face=&quot;Courier New&quot;&gt;x&lt;sub&gt;1&lt;/sub&gt;&lt;/font&gt;" style="text;html=1;strokeColor=none;fillColor=none;align=center;verticalAlign=middle;whiteSpace=wrap;rounded=0;fontColor=#FFFFFF;" vertex="1" parent="1">
          <mxGeometry x="110" y="840" width="60" height="30" as="geometry" />
        </mxCell>
        <mxCell id="vSFo7Jb99_2Wq5jZSn7a-173" value="&lt;font style=&quot;font-size: 16px;&quot; face=&quot;Courier New&quot;&gt;x&lt;sub&gt;2&lt;/sub&gt;&lt;/font&gt;" style="text;html=1;strokeColor=none;fillColor=none;align=center;verticalAlign=middle;whiteSpace=wrap;rounded=0;fontColor=#FFFFFF;" vertex="1" parent="1">
          <mxGeometry x="310" y="840" width="60" height="30" as="geometry" />
        </mxCell>
        <mxCell id="vSFo7Jb99_2Wq5jZSn7a-175" value="" style="endArrow=classic;html=1;rounded=0;fillColor=#1ba1e2;strokeColor=#006EAF;strokeWidth=5;entryX=0;entryY=0.5;entryDx=0;entryDy=0;dashed=1;" edge="1" parent="1" target="vSFo7Jb99_2Wq5jZSn7a-15">
          <mxGeometry width="50" height="50" relative="1" as="geometry">
            <mxPoint x="20" y="460" as="sourcePoint" />
            <mxPoint x="109.5" y="465" as="targetPoint" />
          </mxGeometry>
        </mxCell>
        <mxCell id="vSFo7Jb99_2Wq5jZSn7a-176" value="&lt;font style=&quot;font-size: 16px;&quot; face=&quot;Courier New&quot;&gt;Encoder Memory&lt;/font&gt;" style="text;html=1;strokeColor=none;fillColor=none;align=center;verticalAlign=middle;whiteSpace=wrap;rounded=0;fontColor=#FFFFFF;" vertex="1" parent="1">
          <mxGeometry x="20" y="410" width="120" height="60" as="geometry" />
        </mxCell>
      </root>
    </mxGraphModel>
  </diagram>
</mxfile>
